<svg width="288" height="169" viewBox="0 0 288 169" fill="none" xmlns="http://www.w3.org/2000/svg">
<path d="M240.36 166.541H47.7853C5.29879 166.541 -15.9805 114.919 14.0651 84.7292L64.7375 33.807C108.385 -10.0555 179.408 -10.0555 223.059 33.807L273.98 84.9787C303.93 115.076 282.718 166.541 240.364 166.541" fill="#FFE9A6"/>
<path d="M44.1604 166.54H164.58C191.147 166.54 204.455 134.294 185.668 115.439L153.982 83.6297C126.689 56.2328 82.2769 56.2328 54.9805 83.6297L23.137 115.594C4.40816 134.394 17.6707 166.54 44.1572 166.54" fill="#FFDB74"/>
<path d="M57 95.4531H84C85.933 95.4531 87.5 97.0201 87.5 98.9531V166.453H53.5V98.9531C53.5 97.0201 55.067 95.4531 57 95.4531Z" fill="#D1EAEA" stroke="#231815" stroke-linejoin="round"/>
<path d="M124 62.4531H150C151.933 62.4531 153.5 64.0201 153.5 65.9531V166.453H120.5V65.9531C120.5 64.0201 122.067 62.4531 124 62.4531Z" fill="#D1EAEA" stroke="#231815" stroke-linejoin="round"/>
<path d="M90 11.4531H117C118.933 11.4531 120.5 13.0201 120.5 14.9531V166.453H86.5V14.9531C86.5 13.0201 88.067 11.4531 90 11.4531Z" fill="#D1EAEA" stroke="#231815" stroke-linejoin="round"/>
<path d="M70.365 101.473C67.8265 101.473 65.4413 102.456 63.6468 104.244L56 111.857L60.4788 116.316L67.1979 109.628V165.836C69.3139 165.836 70.365 165.836 70.365 165.836C70.365 165.836 71.4161 165.836 73.532 165.836V109.627L80.2512 116.316L84.7299 111.857L77.0841 104.244C75.2887 102.456 72.9024 101.473 70.365 101.473Z" fill="url(#paint0_linear_1725_43300)"/>
<path d="M137 69.75C134.461 69.75 132.076 70.7331 130.282 72.5218L122.635 80.1339L127.114 84.5929L133.833 77.9054V165.836C135.949 165.836 137 165.836 137 165.836C137 165.836 138.051 165.836 140.167 165.836V77.9044L146.886 84.5929L151.365 80.1339L143.719 72.5218C141.923 70.7331 139.537 69.75 137 69.75Z" fill="url(#paint1_linear_1725_43300)"/>
<path d="M103.634 19.8164C101.096 19.8164 98.7108 20.7995 96.9164 22.5882L89.2695 30.2003L93.7483 34.6594L100.467 27.9718V165.837C102.583 165.837 103.634 165.837 103.634 165.837C103.634 165.837 104.686 165.837 106.802 165.837V27.9708L113.521 34.6594L117.999 30.2003L110.354 22.5882C108.558 20.7995 106.172 19.8164 103.634 19.8164Z" fill="url(#paint2_linear_1725_43300)"/>
<path d="M273.941 147.751H273.952C279.518 147.723 284.232 152.293 284.203 158.062V158.064C284.203 163.323 279.941 168.347 273.861 168.318H273.859C268.033 168.318 263.578 163.639 263.605 158.01C263.663 151.865 268.719 147.665 273.941 147.751Z" fill="#FD950E" stroke="black"/>
<path d="M277.238 147.751H277.249C282.814 147.723 287.529 152.293 287.5 158.062V158.064C287.5 163.323 283.238 168.347 277.158 168.318H277.156C271.33 168.318 266.875 163.639 266.902 158.01C266.96 151.865 272.016 147.665 277.238 147.751Z" fill="#FEC33B" stroke="black"/>
<path d="M245.243 148.036H245.254C250.742 148.008 255.39 152.514 255.362 158.204V158.207C255.362 163.393 251.16 168.346 245.165 168.317H245.163C239.418 168.317 235.025 163.704 235.052 158.152C235.108 152.093 240.094 147.952 245.243 148.036Z" fill="#FD950E" stroke="black"/>
<path d="M248.496 148.036H248.507C253.995 148.008 258.643 152.514 258.615 158.204V158.207C258.615 163.393 254.413 168.346 248.418 168.317H248.416C242.671 168.317 238.278 163.704 238.305 158.152C238.361 152.093 243.347 147.952 248.496 148.036Z" fill="#FEC33B" stroke="black"/>
<path d="M223.902 148.036H223.913C229.401 148.008 234.05 152.514 234.021 158.204V158.207C234.021 163.393 229.819 168.346 223.824 168.317H223.822C218.077 168.317 213.684 163.704 213.711 158.152C213.767 152.093 218.753 147.952 223.902 148.036Z" fill="#FD950E" stroke="black"/>
<path d="M227.155 148.036H227.166C232.654 148.008 237.303 152.514 237.274 158.204V158.207C237.274 163.393 233.072 168.346 227.077 168.317H227.075C221.33 168.317 216.937 163.704 216.964 158.152C217.02 152.093 222.006 147.952 227.155 148.036Z" fill="#FEC33B" stroke="black"/>
<path d="M202.496 147.841H202.507C208.047 147.812 212.74 152.362 212.712 158.105V158.108C212.712 163.343 208.469 168.344 202.417 168.315H202.415C196.615 168.315 192.18 163.658 192.207 158.054C192.264 151.936 197.298 147.756 202.496 147.841Z" fill="#FD950E" stroke="black"/>
<path d="M205.779 147.841H205.79C211.33 147.812 216.023 152.362 215.995 158.105V158.108C215.995 163.343 211.752 168.344 205.7 168.315H205.698C199.898 168.315 195.463 163.658 195.49 158.054C195.547 151.936 200.581 147.756 205.779 147.841Z" fill="#FEC33B" stroke="black"/>
<path d="M181.085 148.036H181.096C186.584 148.008 191.232 152.514 191.204 158.204V158.207C191.204 163.393 187.002 168.346 181.007 168.317H181.005C175.26 168.317 170.867 163.704 170.894 158.152C170.95 152.093 175.936 147.952 181.085 148.036Z" fill="#FD950E" stroke="black"/>
<path d="M184.338 148.036H184.349C189.837 148.008 194.485 152.514 194.457 158.204V158.207C194.457 163.393 190.255 168.346 184.26 168.317H184.258C178.513 168.317 174.119 163.704 174.146 158.152C174.203 152.093 179.189 147.952 184.338 148.036Z" fill="#FEC33B" stroke="black"/>
<path d="M159.773 148.036H159.784C165.272 148.008 169.921 152.514 169.893 158.204V158.207C169.892 163.393 165.69 168.346 159.695 168.317H159.693C153.948 168.317 149.555 163.704 149.582 158.152C149.638 152.093 154.624 147.952 159.773 148.036Z" fill="#FD950E" stroke="black"/>
<path d="M163.026 148.036H163.037C168.525 148.008 173.174 152.514 173.146 158.204V158.207C173.145 163.393 168.943 168.346 162.948 168.317H162.946C157.201 168.317 152.808 163.704 152.835 158.152C152.891 152.093 157.877 147.952 163.026 148.036Z" fill="#FEC33B" stroke="black"/>
<path d="M236.269 129.31H236.279C241.767 129.281 246.416 133.788 246.388 139.478V139.48C246.388 144.666 242.185 149.619 236.19 149.591H236.188C230.443 149.591 226.05 144.977 226.077 139.426C226.134 133.366 231.119 129.225 236.269 129.31Z" fill="#FD950E" stroke="black"/>
<path d="M239.521 129.31H239.532C245.02 129.281 249.669 133.788 249.641 139.478V139.48C249.64 144.666 245.438 149.619 239.443 149.591H239.441C233.696 149.591 229.303 144.977 229.33 139.426C229.386 133.366 234.372 129.225 239.521 129.31Z" fill="#FEC33B" stroke="black"/>
<path d="M214.86 129.114H214.871C220.411 129.086 225.104 133.635 225.076 139.379V139.382C225.076 144.617 220.833 149.617 214.781 149.589H214.779C208.979 149.589 204.544 144.931 204.571 139.327C204.628 133.21 209.662 129.029 214.86 129.114Z" fill="#FD950E" stroke="black"/>
<path d="M218.144 129.114H218.154C223.695 129.086 228.388 133.635 228.359 139.379V139.382C228.359 144.617 224.117 149.617 218.064 149.589H218.062C212.263 149.589 207.827 144.931 207.854 139.327C207.911 133.21 212.945 129.029 218.144 129.114Z" fill="#FEC33B" stroke="black"/>
<path d="M193.449 129.31H193.46C198.948 129.281 203.596 133.788 203.568 139.478V139.48C203.568 144.666 199.366 149.619 193.371 149.591H193.369C187.624 149.591 183.231 144.977 183.258 139.426C183.314 133.366 188.3 129.225 193.449 129.31Z" fill="#FD950E" stroke="black"/>
<path d="M196.702 129.31H196.713C202.201 129.281 206.849 133.788 206.821 139.478V139.48C206.821 144.666 202.619 149.619 196.624 149.591H196.622C190.877 149.591 186.484 144.977 186.511 139.426C186.567 133.366 191.553 129.225 196.702 129.31Z" fill="#FEC33B" stroke="black"/>
<path d="M172.14 129.31H172.15C177.639 129.281 182.287 133.788 182.259 139.478V139.48C182.259 144.666 178.056 149.619 172.062 149.591H172.06C166.314 149.591 161.921 144.977 161.948 139.426C162.005 133.366 166.99 129.225 172.14 129.31Z" fill="#FD950E" stroke="black"/>
<path d="M175.393 129.31H175.403C180.891 129.281 185.54 133.788 185.512 139.478V139.48C185.512 144.666 181.309 149.619 175.314 149.591H175.312C169.567 149.591 165.174 144.977 165.201 139.426C165.258 133.366 170.243 129.225 175.393 129.31Z" fill="#FEC33B" stroke="black"/>
<path d="M227.174 110.552H227.185C232.725 110.523 237.418 115.073 237.39 120.816V120.819C237.39 126.054 233.147 131.055 227.095 131.026H227.093C221.293 131.026 216.858 126.369 216.885 120.765C216.942 114.647 221.975 110.467 227.174 110.552Z" fill="#FD950E" stroke="black"/>
<path d="M230.457 110.552H230.468C236.008 110.523 240.701 115.073 240.673 120.816V120.819C240.673 126.054 236.43 131.055 230.378 131.026H230.376C224.576 131.026 220.141 126.369 220.168 120.765C220.225 114.647 225.259 110.467 230.457 110.552Z" fill="#FEC33B" stroke="black"/>
<path d="M205.763 110.743H205.773C211.262 110.715 215.91 115.221 215.882 120.911V120.914C215.882 126.1 211.68 131.053 205.685 131.024H205.683C199.937 131.024 195.544 126.411 195.571 120.859C195.628 114.8 200.613 110.659 205.763 110.743Z" fill="#FD950E" stroke="black"/>
<path d="M209.016 110.743H209.026C214.515 110.715 219.163 115.221 219.135 120.911V120.914C219.135 126.1 214.932 131.053 208.938 131.024H208.936C203.19 131.024 198.797 126.411 198.824 120.859C198.881 114.8 203.866 110.659 209.016 110.743Z" fill="#FEC33B" stroke="black"/>
<path d="M184.45 110.743H184.461C189.949 110.715 194.597 115.221 194.569 120.911V120.914C194.569 126.1 190.367 131.053 184.372 131.024H184.37C178.625 131.024 174.232 126.411 174.259 120.859C174.315 114.8 179.301 110.659 184.45 110.743Z" fill="#FD950E" stroke="black"/>
<path d="M187.703 110.743H187.714C193.202 110.715 197.85 115.221 197.822 120.911V120.914C197.822 126.1 193.62 131.053 187.625 131.024H187.623C181.878 131.024 177.485 126.411 177.512 120.859C177.568 114.8 182.554 110.659 187.703 110.743Z" fill="#FEC33B" stroke="black"/>
<path d="M218.016 92.2627H218.026C223.515 92.2346 228.163 96.7409 228.135 102.431V102.434C228.135 107.619 223.932 112.572 217.938 112.544H217.936C212.19 112.544 207.797 107.93 207.824 102.379C207.881 96.3193 212.866 92.1785 218.016 92.2627Z" fill="#FD950E" stroke="black"/>
<path d="M221.269 92.2627H221.279C226.767 92.2346 231.416 96.7409 231.388 102.431V102.434C231.388 107.619 227.185 112.572 221.19 112.544H221.188C215.443 112.544 211.05 107.93 211.077 102.379C211.134 96.3193 216.119 92.1785 221.269 92.2627Z" fill="#FEC33B" stroke="black"/>
<path d="M196.702 92.2627H196.713C202.201 92.2346 206.849 96.7409 206.821 102.431V102.434C206.821 107.619 202.619 112.572 196.624 112.544H196.622C190.877 112.544 186.484 107.93 186.511 102.379C186.567 96.3193 191.553 92.1785 196.702 92.2627Z" fill="#FD950E" stroke="black"/>
<path d="M199.955 92.2627H199.966C205.454 92.2346 210.102 96.7409 210.074 102.431V102.434C210.074 107.619 205.872 112.572 199.877 112.544H199.875C194.13 112.544 189.737 107.93 189.764 102.379C189.82 96.3193 194.806 92.1785 199.955 92.2627Z" fill="#FEC33B" stroke="black"/>
<path d="M209.016 73.4541H209.026C214.515 73.426 219.163 77.9323 219.135 83.6221V83.625C219.135 88.8106 214.932 93.7635 208.938 93.7354H208.936C203.19 93.7354 198.797 89.1217 198.824 83.5703C198.881 77.5107 203.866 73.3699 209.016 73.4541Z" fill="#FD950E" stroke="black"/>
<path d="M212.269 73.4541H212.279C217.767 73.426 222.416 77.9323 222.388 83.6221V83.625C222.388 88.8106 218.185 93.7635 212.19 93.7354H212.188C206.443 93.7354 202.05 89.1217 202.077 83.5703C202.134 77.5107 207.119 73.3699 212.269 73.4541Z" fill="#FEC33B" stroke="black"/>
<defs>
<linearGradient id="paint0_linear_1725_43300" x1="70.365" y1="101.473" x2="70.365" y2="165.836" gradientUnits="userSpaceOnUse">
<stop stop-color="#C82A87"/>
<stop offset="1" stop-color="#C82A87"/>
</linearGradient>
<linearGradient id="paint1_linear_1725_43300" x1="137" y1="69.75" x2="137" y2="165.836" gradientUnits="userSpaceOnUse">
<stop stop-color="#C82A87"/>
<stop offset="1" stop-color="#C82A87"/>
</linearGradient>
<linearGradient id="paint2_linear_1725_43300" x1="103.634" y1="19.8164" x2="103.634" y2="165.837" gradientUnits="userSpaceOnUse">
<stop stop-color="#C82A87"/>
<stop offset="1" stop-color="#C82A87"/>
</linearGradient>
</defs>
</svg>
